# xmcd
#
# Track frame offsets: 
#        150
#        18870
#        36638
#        48475
#        62053
#        78781
#        106534
#        118454
#        145914
#        161817
#        196262
#
# Disc length: 2802 seconds
#
# Revision: 5
# Processed by: cddbd v1.5.2PL0 Copyright (c) Steve Scherf et al.
# Submitted via: ExactAudioCopy v0.99pb4
#
DISCID=930af00b
DTITLE=Jimi Hendrix - Psycho
DYEAR=1900
DGENRE=Rock and Roll
TTITLE0=Good Feeling
TTITLE1=Hot Tigger
TTITLE2=Psycho
TTITLE3=Come On Baby Pt. 1
TTITLE4=Come On Baby Pt. 2
TTITLE5=Night Life
TTITLE6=You Got It
TTITLE7=Woke Up In The Morning
TTITLE8=Lime Lime
TTITLE9=Peoples People
TTITLE10=Whoa'eeh
EXTD=
EXTT0=
EXTT1=
EXTT2=
EXTT3=
EXTT4=
EXTT5=
EXTT6=
EXTT7=
EXTT8=
EXTT9=
EXTT10=
PLAYORDER=
